# xmcd
#
# Track frame offsets: 
#        150
#        18069
#        32366
#        45026
#        57145
#        64274
#        79152
#        98715
#        123970
#        136495
#        165627
#
# Disc length: 2434 seconds
#
# Revision: 0
# Processed by: cddbd v1.5.2PL0 Copyright (c) Steve Scherf et al.
# Submitted via: ExactAudioCopy v0.99pb1
#
DISCID=7a09800b
DTITLE=Lappann and The Bluesbrothers - On Stage, On The Road
DYEAR=2000
DGENRE=Blues
TTITLE0=Have You Ever Loved A Woman
TTITLE1=Star Ship
TTITLE2=Sweet Baby
TTITLE3=Looking For Somebody
TTITLE4=Durango Kid
TTITLE5=I Loved Another Woman
TTITLE6=All Your Love
TTITLE7=Bluebird
TTITLE8=What Is This Man!
TTITLE9=The Light
TTITLE10=Yer Destiny
EXTD=
EXTT0=
EXTT1=
EXTT2=
EXTT3=
EXTT4=
EXTT5=
EXTT6=
EXTT7=
EXTT8=
EXTT9=
EXTT10=
PLAYORDER=
